<?xml version="1.0" encoding="UTF-8"?>
<svg version="1.1" xmlns="http://www.w3.org/2000/svg" width="512" height="512">
<path d="M0 0 C0.73920181 -0.00705963 1.47840363 -0.01411926 2.24000549 -0.02139282 C32.63598331 -0.24590279 32.63598331 -0.24590279 45.9765625 3.203125 C46.79012207 3.40180176 47.60368164 3.60047852 48.44189453 3.80517578 C75.65807293 10.54485268 100.10099003 23.09716511 120.734375 42.1484375 C122.66762563 43.92002257 124.63945584 45.60094841 126.6640625 47.265625 C133.23056358 52.88532825 138.3364791 59.85271871 143.51293945 66.72290039 C144.65185475 68.22825914 145.81329617 69.71650317 146.9765625 71.203125 C147.47542969 71.8425 147.97429687 72.481875 148.48828125 73.140625 C149.95351875 74.4249881 149.95351875 74.4249881 152.04296875 74.05859375 C152.86667969 73.83816406 153.69039063 73.61773437 154.5390625 73.390625 C173.01981289 69.47935508 193.31891526 72.76482657 209.7265625 82.140625 C211.9765625 84.203125 211.9765625 84.203125 212.9765625 87.265625 C212.9765625 90.203125 212.9765625 90.203125 210.9765625 93.203125 C205.74091408 93.78976994 202.45482986 92.8099893 197.8515625 90.390625 C184.53297273 83.96672138 170.51510758 82.41675778 155.9765625 85.203125 C156.9665625 88.173125 157.9565625 91.143125 158.9765625 94.203125 C159.6365625 93.873125 160.2965625 93.543125 160.9765625 93.203125 C174.43589462 92.33062844 187.60292089 93.11520208 198.9765625 101.203125 C199.24984375 101.84507813 199.523125 102.48703125 199.8046875 103.1484375 C201.86546973 106.76167567 205.8739779 107.7754207 209.54296875 109.4453125 C211.9765625 111.203125 211.9765625 111.203125 212.8828125 114.28125 C212.9765625 117.203125 212.9765625 117.203125 211.9140625 119.078125 C208.94074282 120.80456868 207.41645513 120.70347302 203.9765625 120.203125 C202.49816471 119.49349406 201.0417685 118.73737163 199.6015625 117.953125 C189.71131572 112.70219459 178.08476165 110.6738114 166.9765625 110.203125 C166.9765625 111.193125 166.9765625 112.183125 166.9765625 113.203125 C167.5334375 113.15671875 168.0903125 113.1103125 168.6640625 113.0625 C174.49250944 112.78683021 179.29204063 113.50426045 183.9765625 117.203125 C184.42 118.01523438 184.8634375 118.82734375 185.3203125 119.6640625 C187.96961961 123.72550028 191.99575233 124.68583736 196.359375 126.48046875 C198.9765625 128.203125 198.9765625 128.203125 199.96875 131.20703125 C199.9765625 134.203125 199.9765625 134.203125 197.9765625 137.203125 C192.51585332 137.98322631 189.09126493 136.4783372 184.33203125 134.16015625 C180.58058628 132.63593732 176.99942428 132.4585448 172.9765625 132.203125 C173.6365625 134.843125 174.2965625 137.483125 174.9765625 140.203125 C178.17649857 141.00310902 180.32309488 141.3272092 183.52636719 141.32910156 C184.42119812 141.33290833 185.31602905 141.33671509 186.23797607 141.34063721 C187.19842834 141.34166443 188.15888062 141.34269165 189.1484375 141.34375 C191.19532361 141.36208008 193.24219892 141.38165057 195.2890625 141.40234375 C198.50604485 141.43127698 201.7223323 141.45312436 204.93945312 141.45361328 C208.05140375 141.45696049 211.16176443 141.49158571 214.2734375 141.53125 C215.70197052 141.52064545 215.70197052 141.52064545 217.15936279 141.50982666 C223.38837148 141.62250821 228.42825059 142.6837949 232.9765625 147.203125 C237.03525595 152.90649946 236.3470194 159.04739266 236.25024414 165.75097656 C236.24123136 167.68904171 236.23223279 169.62710697 236.22376812 171.56517458 C236.21218546 173.64103175 236.19351882 175.71672874 236.17329597 177.79251862 C236.13292101 182.13081384 236.1230091 186.46884957 236.11924744 190.80731201 C236.10503777 203.14155619 236.07024566 215.47528882 235.9597168 227.80908203 C235.89886787 234.6272294 235.87394969 241.44453055 235.8886556 248.26294494 C235.89485659 251.86567418 235.88268206 255.46622031 235.8257618 259.06855011 C235.7622426 263.09271043 235.77684627 267.11308375 235.79711914 271.13769531 C235.75014641 272.90704689 235.75014641 272.90704689 235.70222473 274.71214294 C235.81236438 281.55414885 236.96037647 284.88662685 241.8657074 289.78216553 C243.56728778 291.25817141 245.27070169 292.73206822 246.9765625 294.203125 C248.91996462 296.53566164 250.59905993 298.95528127 252.2265625 301.515625 C252.637854 302.15024658 253.04914551 302.78486816 253.47290039 303.4387207 C257.26719153 309.42589879 260.42431572 315.58244524 262.9765625 322.203125 C263.31558594 323.07195312 263.65460938 323.94078125 264.00390625 324.8359375 C269.7321177 342.94447692 266.80953597 363.66258054 258.28295898 380.21508789 C234.76322335 424.08412179 185.76106386 447.02401171 140.11816406 461.01586914 C118.14355912 467.52289472 95.68161017 472.15425857 72.9765625 475.203125 C71.91824219 475.35410645 70.85992187 475.50508789 69.76953125 475.66064453 C30.2023609 481.09937035 -13.51298295 480.96717509 -53.0234375 475.203125 C-54.24579102 475.03151855 -55.46814453 474.85991211 -56.72753906 474.68310547 C-91.35892084 469.7084564 -125.27713375 461.5433467 -157.13720703 446.90600586 C-163.09803798 444.28561641 -167.92792597 443.60725279 -174.48046875 444.1328125 C-177.0234375 444.203125 -177.0234375 444.203125 -180.6484375 442.515625 C-183.05575212 440.17166076 -184.64509223 438.2661145 -186.0234375 435.203125 C-186.0234375 433.883125 -186.0234375 432.563125 -186.0234375 431.203125 C-186.71308594 430.96464844 -187.40273437 430.72617187 -188.11328125 430.48046875 C-191.57528989 428.96090254 -194.53458441 426.96626696 -197.5859375 424.765625 C-198.19727539 424.32605469 -198.80861328 423.88648438 -199.43847656 423.43359375 C-205.74720998 418.80740705 -211.39797745 413.62487758 -217.0234375 408.203125 C-217.88710937 407.41421875 -218.75078125 406.6253125 -219.640625 405.8125 C-230.13477879 395.9394955 -237.85048097 383.62208155 -243.0234375 370.203125 C-243.36246094 369.33429688 -243.70148438 368.46546875 -244.05078125 367.5703125 C-250.14603339 348.30145089 -246.20992777 327.55919062 -237.29882812 310.0390625 C-233.56010053 303.04005508 -229.19939907 295.69661649 -223.06583118 290.56544685 C-219.00766964 287.05890116 -216.54267234 284.49724774 -216.04362488 279.0295105 C-216.01213419 277.05619933 -216.02387608 275.08188539 -216.07104492 273.10888672 C-216.06494202 272.02495636 -216.05883911 270.941026 -216.05255127 269.82424927 C-216.04118259 266.2593721 -216.08533547 262.69740389 -216.12890625 259.1328125 C-216.12900491 256.64754959 -216.12514644 254.16228365 -216.11750793 251.67703247 C-216.10607724 245.14580662 -216.13970288 238.61564197 -216.1854248 232.08459473 C-216.25605214 221.62497404 -216.25450088 211.16507348 -216.24874306 200.70526505 C-216.25384099 197.05454453 -216.28073269 193.40446761 -216.31059265 189.75387573 C-216.31723267 187.51544346 -216.32334912 185.27700956 -216.32885742 183.03857422 C-216.34986259 181.51886017 -216.34986259 181.51886017 -216.37129211 179.96844482 C-216.36493315 173.85551684 -215.79594716 169.31572918 -211.55859375 164.55859375 C-207.26427903 161.15275794 -204.30656448 160.06461646 -198.9140625 160.10546875 C-198.15996094 160.10869141 -197.40585938 160.11191406 -196.62890625 160.11523438 C-195.85160156 160.12361328 -195.07429688 160.13199219 -194.2734375 160.140625 C-193.48066406 160.14513672 -192.68789062 160.14964844 -191.87109375 160.15429688 C-189.92184242 160.16603935 -187.97263012 160.18397354 -186.0234375 160.203125 C-186.03914795 158.93194824 -186.0548584 157.66077148 -186.07104492 156.35107422 C-186.12547 151.62115856 -186.15983342 146.89127044 -186.18823242 142.16113281 C-186.20329038 140.11648906 -186.22374107 138.07187745 -186.24975586 136.02734375 C-186.28627061 133.08325248 -186.30319401 130.13958943 -186.31640625 127.1953125 C-186.33963203 125.8309053 -186.33963203 125.8309053 -186.36332703 124.43893433 C-186.36469039 119.26183462 -185.93585629 115.6733089 -183.0234375 111.203125 C-178.98328834 107.55713673 -176.6247557 106.07299658 -171.234375 106.10546875 C-170.29335937 106.10869141 -169.35234375 106.11191406 -168.3828125 106.11523438 C-167.39796875 106.12361328 -166.413125 106.13199219 -165.3984375 106.140625 C-164.40585938 106.14513672 -163.41328125 106.14964844 -162.390625 106.15429688 C-159.9348359 106.16610355 -157.47916646 106.182571 -155.0234375 106.203125 C-155.04519043 105.52258057 -155.06694336 104.84203613 -155.08935547 104.14086914 C-155.11473389 102.79690063 -155.11473389 102.79690063 -155.140625 101.42578125 C-155.16237793 100.53898682 -155.18413086 99.65219238 -155.20654297 98.73852539 C-154.92608916 94.85517501 -153.55343073 93.10517606 -151.0234375 90.203125 C-148.25891717 88.82086484 -145.9773012 89.10787113 -142.8984375 89.140625 C-141.80273438 89.14964844 -140.70703125 89.15867187 -139.578125 89.16796875 C-138.73507813 89.17957031 -137.89203125 89.19117187 -137.0234375 89.203125 C-136.765625 88.501875 -136.5078125 87.800625 -136.2421875 87.078125 C-121.84508271 53.11572395 -87.73910429 26.66496651 -55.0234375 12.203125 C-37.45997723 5.17171005 -19.01726618 0.1214628 0 0 Z " fill="#0505CD" transform="translate(246.0234375,16.796875)"/>
<path d="M0 0 C60.72 0 121.44 0 184 0 C184.33 22.77 184.66 45.54 185 69 C187.6858169 71.6858169 189.06992879 71.27246826 192.82666016 71.31884766 C194.04777496 71.33871735 195.26888977 71.35858704 196.52700806 71.37905884 C197.86435769 71.39093608 199.20170925 71.40259889 200.5390625 71.4140625 C201.90385112 71.43276749 203.26862811 71.4523404 204.63339233 71.4727478 C208.22706243 71.52414605 211.82077005 71.56373027 215.41461182 71.60089111 C219.0811904 71.64088279 222.74761185 71.6919971 226.4140625 71.7421875 C233.60926732 71.83903773 240.80454795 71.92341307 248 72 C248.00496522 72.99448182 248.00496522 72.99448182 248.01003075 74.00905418 C248.09117227 90.12441854 248.18323536 106.23967945 248.28752708 122.3549099 C248.33769661 130.14804487 248.38413891 137.94116909 248.421875 145.734375 C248.45476659 152.52516499 248.4945819 159.31587261 248.54279006 166.10657179 C248.56808341 169.70379967 248.58985615 173.30097271 248.60334396 176.89826584 C248.61851276 180.90934889 248.64913586 184.92016841 248.68115234 188.93115234 C248.68331253 190.13020706 248.68547272 191.32926178 248.68769836 192.56465149 C248.70444359 194.19691429 248.70444359 194.19691429 248.7215271 195.8621521 C248.72705786 196.81159887 248.73258862 197.76104565 248.73828697 198.73926353 C248.78600019 201.2000675 248.78600019 201.2000675 251 203 C253.5 203.33333333 253.5 203.33333333 256 203 C258.68540807 200.31459193 258.25256124 198.98574465 258.25828552 195.23022461 C258.26852753 193.38773636 258.26852753 193.38773636 258.27897644 191.50802612 C258.27655685 190.13946504 258.27397255 188.77090424 258.27124023 187.40234375 C258.27562537 185.96688542 258.28092675 184.53142963 258.28707886 183.09597778 C258.29859561 180.00099124 258.30403949 176.9060733 258.30496025 173.81106567 C258.30689657 168.92077367 258.32492483 164.03062419 258.34571838 159.14038086 C258.39496546 146.99389552 258.42581767 134.8473714 258.44702148 122.70080566 C258.46352283 113.26235189 258.48627467 103.82401986 258.53004223 94.38564777 C258.55188078 89.520612 258.55987072 84.65580715 258.55764949 79.79072571 C258.55931137 76.76849484 258.57332952 73.74641589 258.59086227 70.72423935 C258.59648125 69.31893895 258.59692921 67.91360731 258.59192467 66.5083046 C258.58582498 64.59545615 258.59970684 62.68257456 258.61473083 60.76977539 C258.61674216 59.69756241 258.61875349 58.62534943 258.62082577 57.52064514 C258.74595326 56.68883224 258.87108076 55.85701935 259 55 C262.10730686 52.92846209 262.76917417 52.74952357 266.28881836 52.74603271 C267.16367889 52.74039307 268.03853943 52.73475342 268.93991089 52.72894287 C270.37537766 52.73501556 270.37537766 52.73501556 271.83984375 52.74121094 C272.84983429 52.7377063 273.85982483 52.73420166 274.90042114 52.73059082 C278.24618357 52.72177274 281.59173534 52.72762301 284.9375 52.734375 C287.25773153 52.73302837 289.57796279 52.73108786 291.89819336 52.72857666 C296.76386193 52.72562529 301.62945713 52.72992351 306.49511719 52.73925781 C312.73990214 52.75065229 318.98451518 52.7440929 325.22929382 52.73211288 C330.02129416 52.72489467 334.81325357 52.72718205 339.60525513 52.73236847 C341.9082135 52.73370507 344.21117556 52.73205689 346.51412964 52.72740936 C349.72957234 52.72234484 352.9447345 52.73005351 356.16015625 52.74121094 C357.59562302 52.73513824 357.59562302 52.73513824 359.06008911 52.72894287 C359.93494965 52.73458252 360.80981018 52.74022217 361.71118164 52.74603271 C362.85158653 52.74716379 362.85158653 52.74716379 364.01502991 52.74831772 C366 53 366 53 369 55 C369.34057617 57.61376953 369.34057617 57.61376953 369.29296875 60.8828125 C369.28330078 62.04941406 369.27363281 63.21601563 369.26367188 64.41796875 C369.23853516 65.64128906 369.21339844 66.86460937 369.1875 68.125 C369.17396484 69.35605469 369.16042969 70.58710938 369.14648438 71.85546875 C369.11103543 74.90407843 369.06162079 77.951825 369 81 C367.38720909 81.0154612 367.38720909 81.0154612 365.74183655 81.03123474 C355.63209811 81.12879419 345.52242363 81.23151123 335.41278934 81.33933926 C330.21474947 81.39461342 325.01670401 81.44804046 319.81860352 81.49731445 C314.80652738 81.5448919 309.79452196 81.59723204 304.78252983 81.65294075 C302.8658975 81.6733944 300.94924575 81.69210239 299.03257942 81.70907402 C296.35766674 81.73305166 293.68288902 81.76311487 291.00805664 81.79467773 C290.2074884 81.8004332 289.40692017 81.80618866 288.58209229 81.81211853 C284.99333306 81.52928653 284.99333306 81.52928653 282 83 C281.90138402 84.62127423 281.87201233 86.24682368 281.87060547 87.87109375 C281.86745331 88.90886963 281.86430115 89.94664551 281.86105347 91.01586914 C281.8630777 92.14500732 281.86510193 93.27414551 281.8671875 94.4375 C281.86623077 95.58790771 281.86527405 96.73831543 281.86428833 97.92358398 C281.86360631 100.36149144 281.8654621 102.7994007 281.86962891 105.23730469 C281.87497683 108.98376518 281.86968461 112.73010577 281.86328125 116.4765625 C281.86394203 118.83854193 281.86522318 121.20052129 281.8671875 123.5625 C281.86415115 125.25620728 281.86415115 125.25620728 281.86105347 126.98413086 C281.86420563 128.02190674 281.86735779 129.05968262 281.87060547 130.12890625 C281.87140106 131.04744385 281.87219666 131.96598145 281.87301636 132.91235352 C281.76782421 134.98878122 281.76782421 134.98878122 283 136 C285.67702436 136.12512144 288.32952273 136.18606569 291.00805664 136.20532227 C291.84700974 136.21522186 292.68596283 136.22512146 293.55033875 136.23532104 C296.3369154 136.26703185 299.12350913 136.29173114 301.91015625 136.31640625 C303.83687292 136.33696752 305.76358499 136.35796376 307.69029236 136.37937927 C312.771823 136.43468542 317.85339492 136.48405688 322.93499756 136.53222656 C328.1162078 136.58237938 333.2973578 136.63809783 338.47851562 136.69335938 C348.65229233 136.80104537 358.82612125 136.902467 369 137 C369.04626791 148.56960037 369.08184092 160.13917885 369.10362434 171.70885277 C369.1140774 177.08067458 369.12826429 182.45243327 369.15087891 187.82421875 C369.17255311 193.00483448 369.18455715 198.18538935 369.18975449 203.36604691 C369.19346002 205.34607527 369.20069562 207.32610018 369.21146011 209.30610275 C369.22590302 212.07181846 369.22798098 214.83728021 369.22705078 217.60302734 C369.23424133 218.42805252 369.24143188 219.2530777 369.24884033 220.10310364 C369.22810432 225.77189568 369.22810432 225.77189568 367 228 C364.56747246 228.24609566 364.56747246 228.24609566 361.44454956 228.24050903 C360.26381866 228.24325836 359.08308777 228.24600769 357.86657715 228.24884033 C356.56466431 228.24164978 355.26275146 228.23445923 353.92138672 228.22705078 C352.54179899 228.22648687 351.16221067 228.22680284 349.78262329 228.22793579 C346.030743 228.22851108 342.27898985 228.21672847 338.52713919 228.20278788 C334.60868564 228.1903097 330.69022938 228.18911232 326.77175903 228.18673706 C319.34861069 228.1805137 311.92552106 228.16409135 304.50239861 228.14403808 C296.05270263 228.12170566 287.60300388 228.11069235 279.15328574 228.10064721 C261.76882317 228.07972584 244.38441779 228.04453329 227 228 C226.99635437 227.43259094 226.99270874 226.86518188 226.98895264 226.28057861 C226.94714554 220.37543768 226.87781314 214.4710753 226.79248047 208.56640625 C226.7642529 206.36270941 226.7430473 204.158911 226.72900391 201.95507812 C226.70759953 198.78723068 226.66096102 195.62060692 226.609375 192.453125 C226.60753204 190.97480194 226.60753204 190.97480194 226.60565186 189.46661377 C226.58593323 188.5459613 226.5662146 187.62530884 226.54589844 186.67675781 C226.53701599 185.8684552 226.52813354 185.06015259 226.51898193 184.22735596 C225.74775931 180.91743861 224.84554494 179.90422671 222 178 C218.6242791 177.40401586 215.28541775 177.46085391 211.8651123 177.49206543 C210.30226037 177.48270549 210.30226037 177.48270549 208.70783567 177.47315645 C205.20538639 177.45716081 201.70362672 177.46985686 198.20117188 177.48242188 C195.69478447 177.4770037 193.18840025 177.46988277 190.68202209 177.46118164 C184.57437026 177.44480828 178.46697514 177.44724249 172.35931981 177.4588322 C167.39614124 177.4678608 162.43301779 177.46909303 157.46983337 177.46473694 C156.41080298 177.46381754 156.41080298 177.46381754 155.33037803 177.46287957 C153.89617207 177.46160068 152.46196613 177.46030383 151.02776021 177.4589892 C137.5749043 177.44757931 124.12215737 177.46070348 110.66931933 177.48219067 C99.12275336 177.50006206 87.57634823 177.49695806 76.02978516 177.47851562 C62.62552189 177.45711609 49.22135417 177.44867798 35.81707621 177.46096468 C34.38810636 177.46223889 32.9591365 177.46349638 31.53016663 177.46473694 C30.82706131 177.46535404 30.12395599 177.46597114 29.39954445 177.46660694 C24.44154616 177.47006261 19.48360842 177.46422686 14.52561951 177.45481873 C7.85416632 177.44243761 1.18306438 177.45123522 -5.48837471 177.47439575 C-7.941005 177.47969771 -10.39366081 177.47814384 -12.84628105 177.46934509 C-16.1862409 177.45846518 -19.52521575 177.47206274 -22.8651123 177.49206543 C-23.84292428 177.48314254 -24.82073625 177.47421966 -25.82817888 177.46502638 C-31.07594851 177.47290366 -31.07594851 177.47290366 -35.60099411 179.89253616 C-37.2396653 182.36103204 -37.51351029 183.72943601 -37.54589844 186.67675781 C-37.56561707 187.59741028 -37.58533569 188.51806274 -37.60565186 189.46661377 C-37.60749481 190.94493683 -37.60749481 190.94493683 -37.609375 192.453125 C-37.62591125 193.46848328 -37.64244751 194.48384155 -37.65948486 195.52996826 C-37.7080339 198.77003995 -37.7293516 202.00964205 -37.75 205.25 C-37.77815383 207.44794038 -37.80808042 209.64585882 -37.83984375 211.84375 C-37.91379443 217.22908122 -37.9653965 222.61428 -38 228 C-41.45826342 228.05789006 -44.91640293 228.09355821 -48.375 228.125 C-49.35984375 228.14175781 -50.3446875 228.15851563 -51.359375 228.17578125 C-52.30039062 228.18222656 -53.24140625 228.18867188 -54.2109375 228.1953125 C-55.51490479 228.21102295 -55.51490479 228.21102295 -56.84521484 228.22705078 C-59 228 -59 228 -61 226 C-61.25168228 223.38565063 -61.25168228 223.38565063 -61.25396729 220.00244141 C-61.25960693 218.72363098 -61.26524658 217.44482056 -61.27105713 216.1272583 C-61.26716816 214.70202581 -61.2630718 213.27679387 -61.25878906 211.8515625 C-61.26149784 210.35699289 -61.26505813 208.86242462 -61.26940918 207.36785889 C-61.27854899 203.30182388 -61.27498241 199.23589005 -61.26865101 195.16985321 C-61.26359923 190.9213381 -61.26828016 186.67283184 -61.27142334 182.42431641 C-61.27506539 175.2887211 -61.27025764 168.15316715 -61.26074219 161.01757812 C-61.24985717 152.7594172 -61.25338258 144.50135502 -61.264395 136.24319649 C-61.27346108 129.16207087 -61.27475649 122.08097504 -61.26951766 114.9998455 C-61.26639421 110.76658382 -61.26599885 106.53336859 -61.27259064 102.30010986 C-61.27835363 98.32090872 -61.27438652 94.3418353 -61.26280212 90.36264801 C-61.26014991 88.89928652 -61.26093015 87.43591435 -61.26532745 85.97255707 C-61.27076202 83.98089472 -61.26275061 81.98920898 -61.25396729 79.99755859 C-61.25321323 78.88109955 -61.25245918 77.7646405 -61.25168228 76.61434937 C-61 74 -61 74 -59 72 C-56.12995884 71.79425021 -53.35526111 71.71493125 -50.48336792 71.7215271 C-49.59144466 71.7157347 -48.69952139 71.7099423 -47.78057015 71.70397437 C-44.7740876 71.68688849 -41.76775775 71.68409051 -38.76123047 71.68115234 C-36.61317566 71.67186009 -34.46512448 71.66169248 -32.31707764 71.65071106 C-26.47028283 71.62331777 -20.62351223 71.6082341 -14.77666998 71.59528303 C-8.67205864 71.57969317 -2.56749706 71.55288984 3.53707886 71.5272522 C15.10384852 71.48039079 26.67062748 71.44368238 38.2374438 71.41057932 C51.40292941 71.37240984 64.56836514 71.32298621 77.73380876 71.27259517 C104.82250224 71.16916585 131.91122774 71.07994133 159 71 C159.04241723 68.66705225 159.04092937 66.33297433 159 64 C157.17967116 62.17967116 154.32896965 62.85534663 151.88145447 62.84178162 C151.23539877 62.83684364 150.58934307 62.83190566 149.92370993 62.82681805 C147.74333213 62.81137214 145.56298393 62.80306339 143.38256836 62.79467773 C141.82578772 62.78510477 140.26900972 62.77509504 138.7122345 62.76467896 C134.47277627 62.73756074 130.23330684 62.71658876 125.99380946 62.69667697 C121.56816341 62.67485992 117.14255219 62.64745036 112.7169342 62.62062073 C104.33048547 62.57063576 95.94401747 62.52571854 87.55753094 62.48259836 C78.01232178 62.43327548 68.46714756 62.37833906 58.92197216 62.32291877 C39.28134571 62.20900966 19.64068726 62.10293133 0 62 C0 41.54 0 21.08 0 0 Z " fill="#FEFEFE" transform="translate(102,116)"/>
<path d="M0 0 C0.01458252 1.21059082 0.02916504 2.42118164 0.04418945 3.66845703 C0.10231685 8.17509981 0.1795489 12.68125049 0.26245117 17.1875 C0.29563265 19.13500968 0.32368557 21.08261397 0.34643555 23.03027344 C0.38010634 25.83569515 0.43242827 28.64025528 0.48828125 31.4453125 C0.49467117 32.31116974 0.5010611 33.17702698 0.50764465 34.06912231 C0.66792068 40.71199486 2.01407288 44.69593506 6.43994141 49.83081055 C10.98545413 53.31590119 16.4799373 52.726512 21.9609375 52.70703125 C23.10664215 52.72215256 24.2523468 52.73727386 25.43276978 52.75285339 C29.08038009 52.79572895 32.72716279 52.80456887 36.375 52.8125 C38.85288658 52.83564421 41.33075349 52.86100937 43.80859375 52.88867188 C49.87240369 52.9515231 55.93589023 52.98645827 62 53 C62.00546844 54.1329953 62.00546844 54.1329953 62.01104736 55.28887939 C62.04892923 62.41053567 62.10578301 69.53166894 62.18390274 76.65298843 C62.22339643 80.31408723 62.25557521 83.97494485 62.27099609 87.63623047 C62.28615087 91.17026922 62.32057361 94.70364501 62.36830902 98.23738861 C62.39034624 100.24028962 62.39247476 102.24337756 62.39434814 104.24639893 C62.41406677 105.46736267 62.4337854 106.68832642 62.45410156 107.94628906 C62.46298401 109.02106506 62.47186646 110.09584106 62.48101807 111.20318604 C63.1229487 114.66257535 64.29669357 115.82256664 67 118 C70.01173976 119.50586988 73.11656223 119.14436271 76.41999817 119.14044189 C77.19405414 119.14341302 77.96811011 119.14638414 78.76562232 119.1494453 C81.37346278 119.15815452 83.98125745 119.15964242 86.58911133 119.16113281 C88.45319213 119.16575943 90.31727197 119.17078387 92.18135071 119.17617798 C97.25578596 119.18931934 102.33020798 119.19575035 107.4046576 119.20018864 C110.57298795 119.20311664 113.74131465 119.20722093 116.90964317 119.21169281 C126.8168285 119.22537248 136.72400554 119.23503677 146.63119966 119.2388947 C158.07825427 119.24337638 169.52518953 119.26092744 180.97220784 119.2898953 C189.81301997 119.31149334 198.65379848 119.32159798 207.49463671 119.32293582 C212.77822272 119.32398522 218.0616966 119.32992166 223.3452549 119.34775543 C228.3151544 119.3642036 233.28485712 119.36640746 238.25477409 119.35761642 C240.07970836 119.35684429 241.90465307 119.36121185 243.72956085 119.37107468 C246.21962671 119.38374389 248.7089903 119.37794501 251.1990509 119.36749268 C251.92240263 119.37554908 252.64575436 119.38360548 253.39102584 119.39190602 C257.75705549 119.34899986 260.52619377 118.68207558 264 116 C265.34448733 113.31102533 265.16195764 111.18408351 265.20532227 108.17333984 C265.22526749 106.95222504 265.24521271 105.73111023 265.26576233 104.47299194 C265.28274656 103.13564177 265.29962537 101.79829025 265.31640625 100.4609375 C265.33697603 99.09615447 265.35797251 97.73137782 265.37937927 96.36660767 C265.43459759 92.77292027 265.48400787 89.1791754 265.53222656 85.58538818 C265.58244337 81.91885254 265.63812849 78.25240044 265.69335938 74.5859375 C265.800938 67.39069574 265.90238357 60.19538454 266 53 C267.34594128 52.99641747 267.34594128 52.99641747 268.7190733 52.99276257 C290.54360568 52.9336486 312.36802731 52.85812165 334.19243908 52.76428509 C344.74652801 52.71930314 355.30058302 52.679894 365.85473633 52.65356445 C375.05281837 52.63060381 384.25079327 52.59722745 393.44879037 52.55129844 C398.31989755 52.52734013 403.19089844 52.50862845 408.06206322 52.50238609 C412.64623603 52.49634704 417.23013679 52.47638994 421.81420898 52.44572449 C423.49721197 52.43692533 425.18025047 52.43322556 426.86327553 52.43499184 C429.16084926 52.43664186 431.45759099 52.41996952 433.75505066 52.39872742 C435.04095187 52.39411845 436.32685308 52.38950949 437.651721 52.38476086 C442.52403816 51.82486817 445.01438464 50.09512818 448.25 46.5 C450.52207802 43.25417426 451.12200873 40.76388038 451.20532227 36.89575195 C451.22526749 36.07512772 451.24521271 35.25450348 451.26576233 34.40901184 C451.28247482 33.52767075 451.29918732 32.64632965 451.31640625 31.73828125 C451.3475779 30.37959175 451.3475779 30.37959175 451.37937927 28.99345398 C451.44476558 26.09987984 451.50370904 23.20621493 451.5625 20.3125 C451.6056956 18.35090207 451.64931023 16.38931332 451.69335938 14.42773438 C451.80043582 9.61858261 451.90173414 4.80933954 452 0 C453.12706494 0.96005667 454.25328724 1.92110262 455.37915039 2.88256836 C456.32003258 3.68518349 456.32003258 3.68518349 457.27992249 4.50401306 C467.30004805 13.2187232 474.30022877 25.71650702 479 38 C479.3196875 38.82757813 479.639375 39.65515625 479.96875 40.5078125 C485.69911363 58.70702293 482.881705 79.36485381 474.30639648 96.01196289 C450.78666085 139.88099679 401.78450136 162.82088671 356.14160156 176.81274414 C334.16699662 183.31976972 311.70504767 187.95113357 289 191 C287.94167969 191.15098145 286.88335937 191.30196289 285.79296875 191.45751953 C246.2257984 196.89624535 202.51045455 196.76405009 163 191 C161.16646973 190.74259033 161.16646973 190.74259033 159.29589844 190.47998047 C124.66451666 185.5053314 90.74630375 177.3402217 58.88623047 162.70288086 C52.92539952 160.08249141 48.09551153 159.40412779 41.54296875 159.9296875 C39 160 39 160 35.375 158.3125 C32.96768538 155.96853576 31.37834527 154.0629895 30 151 C30 149.68 30 148.36 30 147 C29.31035156 146.76152344 28.62070312 146.52304687 27.91015625 146.27734375 C24.44814761 144.75777754 21.48885309 142.76314196 18.4375 140.5625 C17.82616211 140.12292969 17.21482422 139.68335938 16.58496094 139.23046875 C10.27622752 134.60428205 4.62546005 129.42175258 -1 124 C-1.86367188 123.21109375 -2.72734375 122.4221875 -3.6171875 121.609375 C-14.11134129 111.7363705 -21.82704347 99.41895655 -27 86 C-27.33902344 85.13117188 -27.67804687 84.26234375 -28.02734375 83.3671875 C-34.12259589 64.09832589 -30.18649027 43.35606562 -21.27539062 25.8359375 C-7.4743576 0 -7.4743576 0 0 0 Z " fill="#BDCAFE" transform="translate(30,301)"/>
<path d="M0 0 C0.73920181 -0.00705963 1.47840363 -0.01411926 2.24000549 -0.02139282 C32.63598331 -0.24590279 32.63598331 -0.24590279 45.9765625 3.203125 C46.79012207 3.40180176 47.60368164 3.60047852 48.44189453 3.80517578 C75.65807293 10.54485268 100.10099003 23.09716511 120.734375 42.1484375 C122.66762563 43.92002257 124.63945584 45.60094841 126.6640625 47.265625 C133.23056358 52.88532825 138.3364791 59.85271871 143.51293945 66.72290039 C144.65185475 68.22825914 145.81329617 69.71650317 146.9765625 71.203125 C147.47542969 71.8425 147.97429687 72.481875 148.48828125 73.140625 C149.95351875 74.4249881 149.95351875 74.4249881 152.04296875 74.05859375 C152.86667969 73.83816406 153.69039063 73.61773437 154.5390625 73.390625 C173.01981289 69.47935508 193.31891526 72.76482657 209.7265625 82.140625 C211.9765625 84.203125 211.9765625 84.203125 212.9765625 87.265625 C212.9765625 90.203125 212.9765625 90.203125 210.9765625 93.203125 C205.74091408 93.78976994 202.45482986 92.8099893 197.8515625 90.390625 C184.53297273 83.96672138 170.51510758 82.41675778 155.9765625 85.203125 C156.9665625 88.173125 157.9565625 91.143125 158.9765625 94.203125 C159.6365625 93.873125 160.2965625 93.543125 160.9765625 93.203125 C174.43589462 92.33062844 187.60292089 93.11520208 198.9765625 101.203125 C199.24984375 101.84507813 199.523125 102.48703125 199.8046875 103.1484375 C201.86546973 106.76167567 205.8739779 107.7754207 209.54296875 109.4453125 C211.9765625 111.203125 211.9765625 111.203125 212.8828125 114.28125 C212.9765625 117.203125 212.9765625 117.203125 211.9140625 119.078125 C208.94074282 120.80456868 207.41645513 120.70347302 203.9765625 120.203125 C202.49816471 119.49349406 201.0417685 118.73737163 199.6015625 117.953125 C189.71131572 112.70219459 178.08476165 110.6738114 166.9765625 110.203125 C166.9765625 111.193125 166.9765625 112.183125 166.9765625 113.203125 C167.5334375 113.15671875 168.0903125 113.1103125 168.6640625 113.0625 C174.49250944 112.78683021 179.29204063 113.50426045 183.9765625 117.203125 C184.42 118.01523438 184.8634375 118.82734375 185.3203125 119.6640625 C187.96961961 123.72550028 191.99575233 124.68583736 196.359375 126.48046875 C198.9765625 128.203125 198.9765625 128.203125 199.96875 131.20703125 C199.9765625 134.203125 199.9765625 134.203125 197.9765625 137.203125 C192.51585332 137.98322631 189.09126493 136.4783372 184.33203125 134.16015625 C180.58058628 132.63593732 176.99942428 132.4585448 172.9765625 132.203125 C173.3065625 135.503125 173.6365625 138.803125 173.9765625 142.203125 C173.26547836 142.20677063 172.55439423 142.21041626 171.82176208 142.21417236 C165.09839881 142.25214477 158.37549019 142.30910139 151.65246487 142.38702774 C148.19659551 142.42642454 144.74097796 142.45865061 141.28491211 142.47412109 C137.30549874 142.49225599 133.32678299 142.54224189 129.34765625 142.59375 C127.49883095 142.59559296 127.49883095 142.59559296 125.61265564 142.59747314 C118.88359406 142.71179272 114.36732255 143.02195164 108.9765625 147.203125 C105.0544947 151.71391076 105.0544947 151.71391076 104.9765625 161.203125 C96.3965625 161.203125 87.8165625 161.203125 78.9765625 161.203125 C78.93789063 156.43488281 78.93789063 156.43488281 78.8984375 151.5703125 C78.85999502 148.48233284 78.81484178 145.39451891 78.76904297 142.30664062 C78.74086506 140.16511991 78.71963475 138.02349582 78.70556641 135.88183594 C78.68409325 132.79829093 78.63741933 129.71598482 78.5859375 126.6328125 C78.58409454 125.20278397 78.58409454 125.20278397 78.58221436 123.74386597 C78.45511733 117.9397899 77.8132927 114.63827255 73.9765625 110.203125 C69.18106467 106.94357647 64.71585299 106.68215057 59.1015625 106.515625 C58.3178125 106.48146484 57.5340625 106.44730469 56.7265625 106.41210938 C54.81037502 106.33032088 52.89349535 106.2650304 50.9765625 106.203125 C50.93789063 105.33300781 50.93789063 105.33300781 50.8984375 104.4453125 C50.49155547 98.84143729 49.56791807 95.55628326 45.9765625 91.203125 C43.04227039 89.73597894 40.08189021 90.0494122 36.86459351 90.04490662 C35.75334577 90.03749965 35.75334577 90.03749965 34.61964858 90.02994305 C32.12452717 90.01452229 29.62943158 90.00619509 27.13427734 89.99780273 C25.35075145 89.9882278 23.56722785 89.97821795 21.78370667 89.96780396 C16.93068868 89.94070709 12.07766093 89.91972346 7.2246089 89.89980197 C2.15701473 89.87797185 -2.91054914 89.85056864 -7.9781189 89.82374573 C-17.57930448 89.77377853 -27.18050683 89.72885467 -36.78172529 89.68572336 C-47.71024152 89.63638535 -58.63872738 89.58145451 -69.56721425 89.52604377 C-92.05259367 89.41216193 -114.53800222 89.30533643 -137.0234375 89.203125 C-123.43905335 54.19607865 -88.21046536 26.87332996 -55.0234375 12.203125 C-37.45997723 5.17171005 -19.01726618 0.1214628 0 0 Z " fill="#C9D5FE" transform="translate(246.0234375,16.796875)"/>
<path d="M0 0 C60.72 0 121.44 0 184 0 C184 27.06 184 54.12 184 82 C123.28 82 62.56 82 0 82 C0 54.94 0 27.88 0 0 Z " fill="#FEFEFE" transform="translate(102,329)"/>
<path d="M0 0 C1.04205015 -0.00779995 2.08410029 -0.01559991 3.15772772 -0.02363622 C6.6548669 -0.04360444 10.15092373 -0.0277718 13.64807129 -0.01205444 C16.15298601 -0.01882836 18.65789575 -0.02773022 21.16279602 -0.03860474 C27.26334136 -0.0590596 33.36348489 -0.05603509 39.46403563 -0.04154153 C44.42194685 -0.0302502 49.37977187 -0.0287179 54.33769226 -0.03416061 C55.39608634 -0.03530986 55.39608634 -0.03530986 56.47586212 -0.03648233 C57.90926081 -0.03808095 59.34265949 -0.03970202 60.77605814 -0.04134528 C74.2175272 -0.05560352 87.65882577 -0.03920897 101.10026687 -0.01234345 C112.63402795 0.00999547 124.16753741 0.00611536 135.70129395 -0.01693726 C149.09460229 -0.04369403 162.48776121 -0.05423022 175.88109255 -0.03887594 C177.3092222 -0.03728319 178.73735187 -0.03571134 180.16548157 -0.03416061 C181.219486 -0.03300355 181.219486 -0.03300355 182.29478344 -0.03182311 C187.24682632 -0.02750571 192.19877442 -0.03479345 197.15080261 -0.04655838 C203.8157745 -0.06204479 210.4801974 -0.05102163 217.14514732 -0.0220871 C219.59413041 -0.01546443 222.04315343 -0.01739394 224.49212074 -0.02840042 C227.829683 -0.04201983 231.16570999 -0.02498158 234.50317383 0 C235.47739084 -0.01115361 236.45160785 -0.02230722 237.45534658 -0.03379881 C242.07575685 0.03350292 244.09522246 0.12873744 247.8545332 3.02787495 C249.89531108 5.83243244 250.36621074 7.01322841 250.31921387 10.42520142 C250.31883621 11.34577835 250.31845856 12.26635529 250.31806946 13.21482849 C250.29226303 14.19521591 250.2664566 15.17560333 250.23986816 16.18569946 C250.23279343 17.19964279 250.22571869 18.21358612 250.21842957 19.258255 C250.19049703 22.48873452 250.12775854 25.71746482 250.06408691 28.94741821 C250.03900267 31.14075251 250.01618972 33.33411405 249.99572754 35.52749634 C249.94492965 40.8978488 249.84707166 46.26443176 249.75158691 51.63491821 C238.86158691 51.63491821 227.97158691 51.63491821 216.75158691 51.63491821 C216.75158691 46.68491821 216.75158691 41.73491821 216.75158691 36.63491821 C218.69033691 36.51116821 220.62908691 36.38741821 222.62658691 36.25991821 C227.21528664 36.16873295 227.21528664 36.16873295 230.75158691 33.63491821 C230.75158691 31.65491821 230.75158691 29.67491821 230.75158691 27.63491821 C155.84158691 27.63491821 80.93158691 27.63491821 3.75158691 27.63491821 C3.75158691 29.61491821 3.75158691 31.59491821 3.75158691 33.63491821 C6.11825358 36.40158488 6.11825358 36.40158488 12.75158691 36.63491821 C12.75158691 41.58491821 12.75158691 46.53491821 12.75158691 51.63491821 C3.51158691 51.63491821 -5.72841309 51.63491821 -15.24841309 51.63491821 C-15.36328074 45.17425057 -15.46279743 38.71713183 -15.52307129 32.2562561 C-15.54819817 30.05919381 -15.58230555 27.86221497 -15.62561035 25.66543579 C-15.6863407 22.50531416 -15.71464142 19.34629864 -15.73669434 16.18569946 C-15.76250076 15.20531204 -15.78830719 14.22492462 -15.81489563 13.21482849 C-15.81527328 12.29425156 -15.81565094 11.37367462 -15.81604004 10.42520142 C-15.8271431 9.61911942 -15.83824615 8.81303741 -15.84968567 7.98252869 C-13.74873462 -0.22043089 -7.00560699 -0.08020574 0 0 Z " fill="#6583FD" transform="translate(79.2484130859375,292.3650817871094)"/>
<path d="M0 0 C0.33 0 0.66 0 1 0 C1 55.44 1 110.88 1 168 C0.67 168 0.34 168 0 168 C0 138.96 0 109.92 0 80 C-28.21268448 80.07921231 -28.21268448 80.07921231 -56.42529297 80.18017578 C-61.87524414 80.18920898 -61.87524414 80.18920898 -64.42459106 80.19088745 C-66.2095133 80.19396362 -67.99443132 80.201008 -69.77932739 80.21115112 C-72.47909799 80.22572957 -75.17861408 80.22781406 -77.87841797 80.22705078 C-79.0761424 80.23784511 -79.0761424 80.23784511 -80.29806328 80.2488575 C-85.77194733 80.22805267 -85.77194733 80.22805267 -88 78 C-88.25396729 75.79882812 -88.25396729 75.79882812 -88.25878906 73.03125 C-88.26509338 71.99677734 -88.27139771 70.96230469 -88.27789307 69.89648438 C-88.2738446 68.77564453 -88.26979614 67.65480469 -88.265625 66.5 C-88.26753845 65.35337891 -88.2694519 64.20675781 -88.27142334 63.02539062 C-88.27278622 60.59765402 -88.26908267 58.16991016 -88.26074219 55.7421875 C-88.25004438 52.01545927 -88.26063431 48.28921314 -88.2734375 44.5625 C-88.27211592 42.20833226 -88.26955357 39.85416483 -88.265625 37.5 C-88.26967346 36.37916016 -88.27372192 35.25832031 -88.27789307 34.10351562 C-88.27158875 33.06904297 -88.26528442 32.03457031 -88.25878906 30.96875 C-88.25719788 30.05544922 -88.25560669 29.14214844 -88.25396729 28.20117188 C-88 26 -88 26 -86 24 C-83.25895231 23.81193404 -80.61975713 23.74821596 -77.87841797 23.77294922 C-77.03931885 23.77265717 -76.20021973 23.77236511 -75.33569336 23.77206421 C-72.55442056 23.77346067 -69.77341366 23.78903665 -66.9921875 23.8046875 C-65.06690619 23.80841651 -63.14162299 23.81126401 -61.21633911 23.81326294 C-56.1429523 23.82090824 -51.06967956 23.8405644 -45.99633789 23.8626709 C-40.82179304 23.88311005 -35.64722981 23.89226052 -30.47265625 23.90234375 C-20.31504592 23.92380948 -10.15755028 23.9589989 0 24 C0 16.08 0 8.16 0 0 Z " fill="#6481FC" transform="translate(471,173)"/>
<path d="M0 0 C0.99 0.33 1.98 0.66 3 1 C5.52719638 1.09555864 8.02653283 1.1347221 10.55371094 1.12698364 C11.71819323 1.12932363 11.71819323 1.12932363 12.90620041 1.13171089 C15.51561107 1.13570943 18.12496387 1.13253565 20.734375 1.12939453 C22.60184768 1.13074908 24.46932009 1.13252931 26.33679199 1.13470459 C31.41517285 1.13927255 36.49353345 1.13749197 41.57191467 1.1343255 C46.87964941 1.13179863 52.18738238 1.13414036 57.49511719 1.13571167 C66.40950839 1.1375324 75.32389131 1.13512957 84.23828125 1.13037109 C94.553279 1.12492866 104.86825698 1.12669138 115.18325424 1.1321975 C124.02999923 1.13673136 132.87673826 1.13737783 141.72348404 1.13475883 C147.01141941 1.13319757 152.29934549 1.1329982 157.58728027 1.13629532 C162.55795723 1.13917798 167.52860864 1.13719102 172.49928284 1.13140106 C174.32666481 1.13007559 176.15404892 1.13046399 177.98143005 1.13266373 C180.4697457 1.13538355 182.95797872 1.13198381 185.44628906 1.12698364 C186.17478436 1.12921436 186.90327965 1.13144509 187.65385056 1.13374341 C190.7165547 1.1217507 193.06948069 0.97683977 196 0 C195.91918418 3.43846747 195.80633848 6.87515312 195.6875 10.3125 C195.65366211 11.77719727 195.65366211 11.77719727 195.61914062 13.27148438 C195.58369141 14.20927734 195.54824219 15.14707031 195.51171875 16.11328125 C195.48553467 16.97735596 195.45935059 17.84143066 195.43237305 18.73168945 C194.88487839 21.60394968 194.38362169 22.30222345 192 24 C189.42703851 24.29463256 187.095775 24.40484763 184.5222168 24.38095093 C183.75406238 24.3856309 182.98590796 24.39031087 182.19447613 24.39513266 C179.61254964 24.4071283 177.03114947 24.39760781 174.44921875 24.38818359 C172.60144744 24.39224727 170.75367856 24.397588 168.90591431 24.40411377 C163.88119705 24.41781742 158.85666409 24.41247615 153.83194351 24.40297651 C148.58025862 24.39539569 143.32858979 24.40242113 138.0769043 24.40713501 C129.25664427 24.41259717 120.43645954 24.40538888 111.61621094 24.39111328 C101.41022171 24.3747859 91.20441226 24.38007409 80.99842739 24.3965925 C72.24508593 24.41019425 63.49179867 24.41213345 54.73845005 24.40427649 C49.50637934 24.39959276 44.2743932 24.39899431 39.04232788 24.40888596 C34.12410415 24.41753429 29.20611282 24.41157284 24.28791428 24.39420319 C22.47988649 24.39022691 20.67183924 24.39139179 18.86381912 24.39799118 C16.40154059 24.40615192 13.94001346 24.39595204 11.4777832 24.38095093 C10.39671311 24.39098918 10.39671311 24.39098918 9.29380322 24.40123022 C6.3916387 24.36677758 4.46413418 24.33058775 2.05966187 22.61795998 C0.60898062 20.40296644 0.56817591 18.74980515 0.48828125 16.11328125 C0.45283203 15.17548828 0.41738281 14.23769531 0.38085938 13.27148438 C0.35830078 12.29501953 0.33574219 11.31855469 0.3125 10.3125 C0.27833984 9.32443359 0.24417969 8.33636719 0.20898438 7.31835938 C0.12649462 4.87901947 0.05734932 2.44003937 0 0 Z " fill="#A6B2F9" transform="translate(96,419)"/>
<path d="M0 0 C1.6890473 3.37809459 0.98384957 7.12122375 0.8125 10.8125 C0.79380859 11.62009766 0.77511719 12.42769531 0.75585938 13.25976562 C0.51669735 18.38286799 -0.134896 21.29503214 -4 25 C-6.93645598 26.46822799 -9.52859075 26.12262765 -12.80825806 26.12025452 C-13.87050317 26.12153615 -13.87050317 26.12153615 -14.95420778 26.12284368 C-17.33880057 26.12449724 -19.72332379 26.11897913 -22.10791016 26.11352539 C-23.81261697 26.11324347 -25.5173239 26.11340136 -27.22203064 26.1139679 C-31.8602046 26.11425567 -36.49835288 26.10836223 -41.13652086 26.10139394 C-45.97987775 26.09515701 -50.82323518 26.09455633 -55.66659546 26.09336853 C-64.84281168 26.09025622 -74.01901604 26.08204417 -83.19522703 26.07201904 C-93.64005493 26.0608548 -104.08488339 26.05534667 -114.52971578 26.05032361 C-136.01981862 26.03986149 -157.50990519 26.02151724 -179 26 C-179 37.88 -179 49.76 -179 62 C-179.33 62 -179.66 62 -180 62 C-180 42.86 -180 23.72 -180 4 C-174.72491455 3.98541748 -169.4498291 3.97083496 -164.01489258 3.95581055 C-146.61238912 3.90553935 -129.20997532 3.83910876 -111.80756092 3.76428509 C-101.25347199 3.71930314 -90.69941698 3.679894 -80.14526367 3.65356445 C-70.94718163 3.63060381 -61.74920673 3.59722745 -52.55120963 3.55129844 C-47.68010245 3.52734013 -42.80910156 3.50862845 -37.93793678 3.50238609 C-33.35376397 3.49634704 -28.76986321 3.47638994 -24.18579102 3.44572449 C-22.50278803 3.43692533 -20.81974953 3.43322556 -19.13672447 3.43499184 C-16.83915074 3.43664186 -14.54240901 3.41996952 -12.24494934 3.39872742 C-10.95904813 3.39411845 -9.67314692 3.38950949 -8.348279 3.38476086 C-4.79159944 2.97605206 -2.87781117 2.07357352 0 0 Z " fill="#A2ADF7" transform="translate(476,350)"/>
<path d="M0 0 C0.77590485 -0.00525696 1.55180969 -0.01051392 2.35122681 -0.01593018 C4.91794927 -0.02914225 7.48405239 -0.02038807 10.05078125 -0.01025391 C11.83292765 -0.0122743 13.61507324 -0.01518545 15.3972168 -0.01895142 C19.1330553 -0.0233764 22.86867868 -0.01693817 26.60449219 -0.00292969 C31.39657209 0.01416236 36.18814795 0.0043221 40.98020935 -0.01364708 C44.66047981 -0.02448025 48.3406305 -0.02104074 52.02090454 -0.0132637 C53.78797464 -0.0112604 55.55505557 -0.01372553 57.32211304 -0.02070236 C59.79055649 -0.02830926 62.2581802 -0.01672393 64.7265625 0 C65.45912262 -0.00607269 66.19168274 -0.01214539 66.94644165 -0.0184021 C71.87751956 0.04358784 71.87751956 0.04358784 74.3163147 1.77365112 C75.74595474 3.97830634 75.7512373 5.55206574 75.76171875 8.16943359 C75.76558594 9.09369141 75.76945312 10.01794922 75.7734375 10.97021484 C75.76183594 11.93314453 75.75023437 12.89607422 75.73828125 13.88818359 C75.74988281 14.85111328 75.76148438 15.81404297 75.7734375 16.80615234 C75.76957031 17.73041016 75.76570313 18.65466797 75.76171875 19.60693359 C75.75833496 20.45191406 75.75495117 21.29689453 75.75146484 22.16748047 C75.25087507 25.03123176 74.73908233 25.70280782 72.36328125 27.38818359 C69.7388597 27.68417794 67.3514954 27.79812706 64.7265625 27.77636719 C63.95065765 27.78162415 63.17475281 27.7868811 62.37533569 27.79229736 C59.80861323 27.80550944 57.24251011 27.79675526 54.67578125 27.78662109 C52.89363485 27.78864149 51.11148926 27.79155264 49.3293457 27.7953186 C45.5935072 27.79974358 41.85788382 27.79330535 38.12207031 27.77929688 C33.32999041 27.76220483 28.53841455 27.77204509 23.74635315 27.79001427 C20.06608269 27.80084744 16.385932 27.79740792 12.70565796 27.78963089 C10.93858786 27.78762759 9.17150693 27.79009271 7.40444946 27.79706955 C4.93600601 27.80467645 2.4683823 27.79309112 0 27.77636719 C-1.09884018 27.78547623 -1.09884018 27.78547623 -2.21987915 27.79476929 C-7.15095706 27.73277935 -7.15095706 27.73277935 -9.5897522 26.00271606 C-11.01939224 23.79806084 -11.0246748 22.22430144 -11.03515625 19.60693359 C-11.03902344 18.68267578 -11.04289062 17.75841797 -11.046875 16.80615234 C-11.03527344 15.84322266 -11.02367187 14.88029297 -11.01171875 13.88818359 C-11.02332031 12.92525391 -11.03492188 11.96232422 -11.046875 10.97021484 C-11.04300781 10.04595703 -11.03914063 9.12169922 -11.03515625 8.16943359 C-11.03177246 7.32445312 -11.02838867 6.47947266 -11.02490234 5.60888672 C-9.96476893 -0.45587649 -5.18060359 -0.04294557 0 0 Z " fill="#6885FE" transform="translate(74.63671875,209.61181640625)"/>
<path d="M0 0 C1.07226082 0.72912346 1.07226082 0.72912346 2.16618347 1.47297668 C5.21729666 3.11709194 6.91518811 3.39069572 10.34106445 3.43237305 C11.92377136 3.46228333 11.92377136 3.46228333 13.53845215 3.49279785 C15.18424255 3.5021637 15.18424255 3.5021637 16.86328125 3.51171875 C17.88047241 3.52835571 18.89766357 3.54499268 19.94567871 3.56213379 C23.73441021 3.61983594 27.52349392 3.65216141 31.3125 3.6875 C44.0278125 3.8421875 44.0278125 3.8421875 57 4 C57 23.14 57 42.28 57 62 C56.67 62 56.34 62 56 62 C56 50.12 56 38.24 56 26 C52.52082031 26.04640625 49.04164062 26.0928125 45.45703125 26.140625 C42.08456887 26.17182671 38.71212263 26.19611111 35.33959961 26.21972656 C32.99707839 26.23983265 30.6546073 26.26712166 28.31225586 26.30175781 C24.94372177 26.35031841 21.57585169 26.37297922 18.20703125 26.390625 C17.16102249 26.41127014 16.11501373 26.43191528 15.03730774 26.45318604 C7.75239684 26.45543044 7.75239684 26.45543044 3.86206055 24.10058594 C1.19965363 21.09713123 0.85736652 19.35198722 0.68359375 15.4296875 C0.64169922 14.53378906 0.59980469 13.63789063 0.55664062 12.71484375 C0.51732422 11.77769531 0.47800781 10.84054687 0.4375 9.875 C0.39431641 8.93011719 0.35113281 7.98523438 0.30664062 7.01171875 C0.20040928 4.67462908 0.09836824 2.3374317 0 0 Z " fill="#A0ABF6" transform="translate(35,350)"/>
<path d="M0 0 C2.8125 2 2.8125 2 3.640625 3.9453125 C5.70140723 7.55855067 9.7099154 8.5722957 13.37890625 10.2421875 C15.8125 12 15.8125 12 16.71875 15.078125 C16.8125 18 16.8125 18 15.75 19.875 C12.77668032 21.60144368 11.25239263 21.50034802 7.8125 21 C6.33410221 20.29036906 4.877706 19.53424663 3.4375 18.75 C-6.82695927 13.30859991 -18.68471254 11.43571165 -30.1875 11 C-30.8475 9.02 -31.5075 7.04 -32.1875 5 C-34.10539954 5.62120646 -36.02177522 6.24711891 -37.9375 6.875 C-39.00484375 7.22304687 -40.0721875 7.57109375 -41.171875 7.9296875 C-43.64748717 8.80833742 -45.84937104 9.8283548 -48.1875 11 C-51.10216608 11.35544708 -52.5653981 11.39399787 -55.0625 9.8125 C-56.1875 8 -56.1875 8 -56.3125 5.625 C-54.20403136 0.70523985 -50.13304219 -1.14027691 -45.46484375 -3.203125 C-30.37905537 -8.61951425 -14.21621466 -7.34116003 0 0 Z " fill="#0101CC" transform="translate(442.1875,116)"/>
<path d="M0 0 C6.27 0 12.54 0 19 0 C19 14.85 19 29.7 19 45 C11.74 45 4.48 45 -3 45 C-3.06882907 39.07305218 -3.12857499 33.14748788 -3.16479492 27.22045898 C-3.17989179 25.20380966 -3.20037115 23.18719321 -3.22631836 21.1706543 C-3.26266211 18.27384329 -3.2797172 15.37746594 -3.29296875 12.48046875 C-3.30845261 11.57725388 -3.32393646 10.674039 -3.33988953 9.74345398 C-3.34011612 8.90280899 -3.34034271 8.062164 -3.34057617 7.19604492 C-3.34723801 6.45658127 -3.35389984 5.71711761 -3.36076355 4.95524597 C-3 3 -3 3 0 0 Z " fill="#F5F5FD" transform="translate(73,133)"/>
<path d="M0 0 C2.25 2.0625 2.25 2.0625 3.25 5.125 C3.25 8.0625 3.25 8.0625 1.25 11.0625 C-3.98564842 11.64914494 -7.27173264 10.6693643 -11.875 8.25 C-27.68781599 0.62306595 -45.00483148 -0.1920184 -61.75 5.0625 C-65.21094122 6.54414477 -68.5679919 8.12327512 -71.91015625 9.85546875 C-74.82833013 11.095793 -76.62230931 11.41062557 -79.75 11.0625 C-81.625 9.875 -81.625 9.875 -82.75 8.0625 C-82.75 4.79355802 -82.10973132 3.44621341 -79.875 1.0625 C-56.19482333 -14.09281307 -24.28970354 -13.87983059 0 0 Z " fill="#0202CC" transform="translate(455.75,98.9375)"/>
<path d="M0 0 C16 0 16 0 19 2 C19.36076355 3.87295532 19.36076355 3.87295532 19.34057617 6.17431641 C19.34034958 7.03505768 19.34012299 7.89579895 19.33988953 8.78262329 C19.32440567 9.71287323 19.30892181 10.64312317 19.29296875 11.6015625 C19.28872391 12.55316254 19.28447906 13.50476257 19.28010559 14.48519897 C19.26327896 17.53208414 19.22561954 20.57831391 19.1875 23.625 C19.17245831 25.68749046 19.15876901 27.74999127 19.14648438 29.8125 C19.11591096 34.87545717 19.05719715 39.93699285 19 45 C12.73 45 6.46 45 0 45 C0 30.15 0 15.3 0 0 Z " fill="#F9F9FD" transform="translate(296,133)"/>
<path d="M0 0 C3 2.4375 3 2.4375 5 5 C5.33 5.33 5.66 5.66 6 6 C6.08767112 8.07262076 6.10695873 10.14820294 6.09765625 12.22265625 C6.09443359 13.48271484 6.09121094 14.74277344 6.08789062 16.04101562 C6.07953403 17.38151109 6.07106907 18.72200588 6.0625 20.0625 C6.0574866 21.40689942 6.05292342 22.7513006 6.04882812 24.09570312 C6.03699497 27.39715433 6.01905886 30.6985826 6 34 C-0.93 34 -7.86 34 -15 34 C-15.10786127 29.43686907 -15.18726757 24.87628403 -15.25 20.3125 C-15.28351563 19.01892578 -15.31703125 17.72535156 -15.3515625 16.39257812 C-15.36445313 15.14541016 -15.37734375 13.89824219 -15.390625 12.61328125 C-15.41157227 11.46641846 -15.43251953 10.31955566 -15.45410156 9.13793945 C-14.90384899 5.33557585 -13.65728809 3.71874791 -11 1 C-7.53003768 -0.73498116 -3.78492805 -0.60794181 0 0 Z " fill="#6683FE" transform="translate(452,310)"/>
<path d="M0 0 C3 2.4375 3 2.4375 5 5 C5.33 5.33 5.66 5.66 6 6 C6.08767112 8.07262076 6.10695873 10.14820294 6.09765625 12.22265625 C6.09443359 13.48271484 6.09121094 14.74277344 6.08789062 16.04101562 C6.07953403 17.38151109 6.07106907 18.72200588 6.0625 20.0625 C6.0574866 21.40689942 6.05292342 22.7513006 6.04882812 24.09570312 C6.03699497 27.39715433 6.01905886 30.6985826 6 34 C-0.93 34 -7.86 34 -15 34 C-15.10786127 29.43686907 -15.18726757 24.87628403 -15.25 20.3125 C-15.28351563 19.01892578 -15.31703125 17.72535156 -15.3515625 16.39257812 C-15.36445313 15.14541016 -15.37734375 13.89824219 -15.390625 12.61328125 C-15.41157227 11.46641846 -15.43251953 10.31955566 -15.45410156 9.13793945 C-14.90384899 5.33557585 -13.65728809 3.71874791 -11 1 C-7.53003768 -0.73498116 -3.78492805 -0.60794181 0 0 Z " fill="#6683FE" transform="translate(389,310)"/>
<path d="M0 0 C4.17822731 1.39709476 6.79212452 4.40974455 9.8125 7.5234375 C10.45767578 8.14927734 11.10285156 8.77511719 11.76757812 9.41992188 C14.26676228 11.94555243 16.20056189 13.94042167 17.3359375 17.3359375 C15.93884274 21.51416481 12.92619295 24.12806202 9.8125 27.1484375 C8.87374023 28.11620117 8.87374023 28.11620117 7.91601562 29.10351562 C5.39038507 31.60269978 3.39551583 33.53649939 0 34.671875 C-4.17822731 33.27478024 -6.79212452 30.26213045 -9.8125 27.1484375 C-10.45767578 26.52259766 -11.10285156 25.89675781 -11.76757812 25.25195312 C-14.26676228 22.72632257 -16.20056189 20.73145333 -17.3359375 17.3359375 C-15.93884274 13.15771019 -12.92619295 10.54381298 -9.8125 7.5234375 C-9.18666016 6.87826172 -8.56082031 6.23308594 -7.91601562 5.56835938 C-5.39038507 3.06917522 -3.39551583 1.13537561 0 0 Z " fill="#6784FE" transform="translate(291.5,50.1640625)"/>
<path d="M0 0 C4.14539167 1.41070511 6.58704127 4.11953153 9.61328125 7.203125 C10.21076172 7.77675781 10.80824219 8.35039063 11.42382812 8.94140625 C13.81293711 11.33870646 15.54680568 13.17517069 16.60546875 16.41796875 C15.266305 20.63698463 12.23869048 23.23388438 9.11328125 26.265625 C8.17452148 27.23338867 8.17452148 27.23338867 7.21679688 28.22070312 C4.69116632 30.71988728 2.69629708 32.65368689 -0.69921875 33.7890625 C-4.87744606 32.39196774 -7.49134327 29.37931795 -10.51171875 26.265625 C-11.15689453 25.63978516 -11.80207031 25.01394531 -12.46679688 24.36914062 C-14.9838142 21.82548819 -16.90970934 19.85212792 -18.015625 16.41796875 C-16.69243341 12.42306974 -13.84340185 10.03759015 -10.82421875 7.203125 C-9.91929687 6.31947266 -9.91929687 6.31947266 -8.99609375 5.41796875 C-3.3181357 -0.07072403 -3.3181357 -0.07072403 0 0 Z " fill="#6684FE" transform="translate(332.19921875,76.046875)"/>
<path d="M0 0 C4.22640004 1.33294155 6.85541398 4.31709349 9.9140625 7.42578125 C10.56761719 8.04324219 11.22117187 8.66070312 11.89453125 9.296875 C16.45492788 13.85727163 16.45492788 13.85727163 16.8125 17.8671875 C15.12345306 21.75821281 12.82850301 24.20772086 9.7890625 27.11328125 C9.263125 27.65017578 8.7371875 28.18707031 8.1953125 28.74023438 C5.9021361 30.99083943 3.8953794 32.6609873 0.890625 33.83984375 C-3.73054462 33.76308013 -6.38839428 29.91961514 -9.4609375 26.80078125 C-10.15574219 26.11628906 -10.85054688 25.43179687 -11.56640625 24.7265625 C-16.43452131 19.62524432 -16.43452131 19.62524432 -16.53515625 16.484375 C-14.93831251 12.495169 -12.24598166 9.96687491 -9.2109375 6.98828125 C-8.63730469 6.39080078 -8.06367188 5.79332031 -7.47265625 5.17773438 C-5.07677504 2.79003955 -3.24202859 1.05494581 0 0 Z " fill="#6784FE" transform="translate(405.4609375,400.19921875)"/>
<path d="M0 0 C0.72058594 -0.01289063 1.44117188 -0.02578125 2.18359375 -0.0390625 C5.99096115 1.02374942 8.53697235 2.22155399 10.5625 5.625 C11.31635595 10.5669017 11.12649329 15.45889379 10.9375 20.4375 C10.90738122 21.81179094 10.88000872 23.18614499 10.85546875 24.56054688 C10.78482674 27.91604212 10.67721248 31.27072219 10.5625 34.625 C3.9625 34.625 -2.6375 34.625 -9.4375 34.625 C-9.55262589 30.58536041 -9.65204033 26.54992333 -9.7121582 22.50952148 C-9.73722617 21.13692898 -9.77129082 19.76446898 -9.81469727 18.39233398 C-9.87567531 16.41449304 -9.90111009 14.43565816 -9.92578125 12.45703125 C-9.95196533 11.26827393 -9.97814941 10.0795166 -10.00512695 8.85473633 C-9.06821275 3.52379525 -5.55223706 -0.09897036 0 0 Z " fill="#6583FE" transform="translate(415.4375,309.375)"/>
<path d="M0 0 C1.13134872 -0.00953201 2.26269745 -0.01906403 3.42832947 -0.02888489 C4.65540115 -0.02797348 5.88247284 -0.02706207 7.14672852 -0.02612305 C8.40195816 -0.03040817 9.65718781 -0.0346933 10.95045471 -0.03910828 C13.60952683 -0.04486078 16.26821194 -0.04627639 18.92724609 -0.04101562 C22.33495313 -0.03522228 25.74211642 -0.05214571 29.14973354 -0.0753603 C32.39872799 -0.09363528 35.6476919 -0.08991239 38.89672852 -0.08862305 C40.7342997 -0.10243767 40.7342997 -0.10243767 42.60899353 -0.11653137 C43.74349442 -0.11030258 44.8779953 -0.10407379 46.046875 -0.09765625 C47.04677963 -0.09828568 48.04668427 -0.0989151 49.07688904 -0.0995636 C51.58813477 0.2746582 51.58813477 0.2746582 53.44618225 1.63777161 C54.58813477 3.2746582 54.58813477 3.2746582 54.40063477 5.8371582 C53.58813477 8.2746582 53.58813477 8.2746582 51.58813477 10.2746582 C49.20387268 10.53535461 49.20387268 10.53535461 46.17626953 10.54931641 C45.04492081 10.55884842 43.91357208 10.56838043 42.74794006 10.57820129 C41.52086838 10.57728989 40.29379669 10.57637848 39.02954102 10.57543945 C37.77431137 10.57972458 36.51908173 10.5840097 35.22581482 10.58842468 C32.5667427 10.59417719 29.90805759 10.5955928 27.24902344 10.59033203 C23.8413164 10.58453869 20.43415311 10.60146211 17.02653599 10.6246767 C13.77754154 10.64295169 10.52857763 10.6392288 7.27954102 10.63793945 C5.44196983 10.65175407 5.44196983 10.65175407 3.567276 10.66584778 C2.43277512 10.65961899 1.29827423 10.6533902 0.12939453 10.64697266 C-1.37046242 10.64791679 -1.37046242 10.64791679 -2.90061951 10.64888 C-5.41186523 10.2746582 -5.41186523 10.2746582 -7.26991272 8.9115448 C-8.41186523 7.2746582 -8.41186523 7.2746582 -8.22436523 4.7121582 C-6.65328421 -0.00108487 -4.56692616 0.02106038 0 0 Z " fill="#0202CC" transform="translate(73.411865234375,247.725341796875)"/>
<path d="M0 0 C1.73189575 -0.00945648 1.73189575 -0.00945648 3.4987793 -0.019104 C4.75086182 -0.01505554 6.00294434 -0.01100708 7.29296875 -0.00683594 C8.57276611 -0.00874939 9.85256348 -0.01066284 11.17114258 -0.01263428 C13.88139668 -0.01558475 16.59151902 -0.01129049 19.30175781 -0.00195312 C22.77896106 0.00944154 26.25585557 0.00288163 29.73304749 -0.00909805 C33.04471279 -0.01805519 36.35629466 -0.01178729 39.66796875 -0.00683594 C41.54609253 -0.01290863 41.54609253 -0.01290863 43.4621582 -0.019104 C44.61675537 -0.01279968 45.77135254 -0.00649536 46.9609375 0 C47.98082764 0.00159119 49.00071777 0.00318237 50.05151367 0.00482178 C52.48046875 0.25878906 52.48046875 0.25878906 54.48046875 2.25878906 C54.79296875 5.25878906 54.79296875 5.25878906 54.48046875 8.25878906 C51.11754829 10.50073604 49.9814199 10.51493276 46.046875 10.53344727 C44.93562256 10.54297928 43.82437012 10.55251129 42.67944336 10.56233215 C41.47940674 10.56142075 40.27937012 10.56050934 39.04296875 10.55957031 C37.19554077 10.565998 37.19554077 10.565998 35.31079102 10.57255554 C32.03708743 10.57977542 28.76356723 10.57666912 25.48986816 10.57098389 C23.48238875 10.57128877 21.47520383 10.58133177 19.46777344 10.5949707 C15.61769673 10.61939531 11.76811307 10.62362868 7.91796875 10.62207031 C6.71793213 10.63128006 5.51789551 10.64048981 4.28149414 10.64997864 C3.1702417 10.64374985 2.05898926 10.63752106 0.9140625 10.63110352 C-0.5546228 10.63204765 -0.5546228 10.63204765 -2.05297852 10.63301086 C-4.51953125 10.25878906 -4.51953125 10.25878906 -6.33959961 8.89567566 C-7.99982998 6.59248389 -7.87466597 5.02883986 -7.51953125 2.25878906 C-4.87937314 -0.38136905 -3.68330616 0.00574653 0 0 Z " fill="#0303CD" transform="translate(403.51953125,228.7412109375)"/>
<path d="M0 0 C1.65625 1.36328125 1.65625 1.36328125 2.9921875 3.82421875 C5.65115585 7.88133008 9.67303382 8.84500409 14.0390625 10.640625 C16.65625 12.36328125 16.65625 12.36328125 17.6484375 15.3671875 C17.65625 18.36328125 17.65625 18.36328125 15.65625 21.36328125 C10.24266675 22.13665029 6.80320698 20.68408619 2.078125 18.38671875 C-1.91330467 16.70001782 -6.08188422 16.03948542 -10.34375 15.36328125 C-10.67375 13.05328125 -11.00375 10.74328125 -11.34375 8.36328125 C-12.54 8.69328125 -13.73625 9.02328125 -14.96875 9.36328125 C-18.52021476 10.23700444 -21.6700082 10.79046053 -25.34375 10.36328125 C-27.28125 9.17578125 -27.28125 9.17578125 -28.34375 7.36328125 C-28.26655701 4.2755617 -27.85138095 2.8709122 -25.65625 0.67578125 C-17.50334969 -3.95154055 -8.33831824 -4.29282062 0 0 Z " fill="#0202CD" transform="translate(428.34375,132.63671875)"/>
<path d="M0 0 C3.26275969 1.60253423 5.23017874 3.95024374 7.375 6.875 C8.32425152 10.10245516 8.3465354 12.65015781 8 16 C6.25 19.1875 6.25 19.1875 4 22 C3.46375 22.78375 2.9275 23.5675 2.375 24.375 C-1.50053089 27.02667903 -5.4635605 26.70949054 -10 26 C-14.37406416 23.85273214 -17.29296713 21.61903012 -19 17 C-19.28260769 11.88737003 -18.86458531 7.49406771 -15.5625 3.4375 C-10.92470024 -0.97406562 -6.1866229 -0.7853259 0 0 Z " fill="#6684FE" transform="translate(79,435)"/>
<path d="M0 0 C4.38773175 2.19386588 7.09334197 4.44520582 9 9 C9.57256111 14.24847685 8.75188036 17.51545423 6 22 C3.6589976 24.82871123 1.66145861 25.7456294 -2.015625 26.30859375 C-6.69735015 26.57869328 -9.35755729 26.21806602 -13 23.125 C-16.27916929 19.98246276 -17.20793873 17.85503051 -17.4375 13.3125 C-17.41544127 8.23899195 -15.98873334 5.85075283 -12.5078125 2.27734375 C-8.80926937 -0.85587802 -4.6242061 -0.56050983 0 0 Z " fill="#6684FE" transform="translate(353,377)"/>
<path d="M0 0 C0.66 1.98 1.32 3.96 2 6 C1.27296875 6.09796875 0.5459375 6.1959375 -0.203125 6.296875 C-9.15791171 7.62861251 -18.12110333 9.47895268 -25.9375 14.25 C-29.03764011 16.02150863 -30.51170169 16.597994 -34 16 C-36 14 -36 14 -36.625 11.1875 C-36 8 -36 8 -34.3515625 6.53125 C-31.0580254 4.42534524 -27.91596675 2.58107894 -24 2 C-23.566875 2.495 -23.13375 2.99 -22.6875 3.5 C-21.00243245 5.34009188 -21.00243245 5.34009188 -18 4.9375 C-13.64521421 4.11865139 -9.56528963 2.45369607 -5.453125 0.83984375 C-3 0 -3 0 0 0 Z " fill="#99A3F2" transform="translate(410,121)"/>
<path d="M0 0 C1.46566406 -0.00386719 1.46566406 -0.00386719 2.9609375 -0.0078125 C3.98445313 -0.00007812 5.00796875 0.00765625 6.0625 0.015625 C7.08601563 0.00789062 8.10953125 0.00015625 9.1640625 -0.0078125 C10.14117187 -0.00523437 11.11828125 -0.00265625 12.125 0 C13.02347656 0.00225586 13.92195313 0.00451172 14.84765625 0.00683594 C17.0625 0.265625 17.0625 0.265625 19.0625 2.265625 C19.375 5.265625 19.375 5.265625 19.0625 8.265625 C14.79050275 11.11362317 11.08451715 10.59580816 6.0625 10.578125 C4.68964844 10.60229492 4.68964844 10.60229492 3.2890625 10.62695312 C2.40992188 10.62759766 1.53078125 10.62824219 0.625 10.62890625 C-0.57962891 10.63337769 -0.57962891 10.63337769 -1.80859375 10.63793945 C-4.45350954 10.17538251 -5.33703446 9.38871091 -6.9375 7.265625 C-7.25 4.703125 -7.25 4.703125 -6.9375 2.265625 C-4.40695663 -0.26491837 -3.50201118 0.00879271 0 0 Z " fill="#0304CD" transform="translate(402.9375,210.734375)"/>
<path d="M0 0 C0.33 0.33 0.66 0.66 1 1 C5.14276875 1.24733137 5.14276875 1.24733137 9 0 C10.99960012 -0.039992 13.00047242 -0.04346799 15 0 C15.33 1.98 15.66 3.96 16 6 C14.74896484 6.14695313 14.74896484 6.14695313 13.47265625 6.296875 C7.1012554 7.1434758 1.76903416 8.2706821 -3.99609375 11.10546875 C-7.05514415 12.47100977 -9.65593994 12.86350775 -13 13 C-15 11 -15 11 -15.625 8.1875 C-15 5 -15 5 -13.31640625 3.53125 C-5.05322606 -1.68440869 -5.05322606 -1.68440869 0 0 Z " fill="#9AA4F3" transform="translate(402,141)"/>
<path d="M0 0 C1.9375 1.125 1.9375 1.125 3 3 C3.5 6.4375 3.5 6.4375 3 10 C0.58140437 12.69500656 -1.00763965 13.80636871 -4.5625 14.5 C-7.96311101 13.80243877 -9.05445623 12.88228706 -11 10 C-11.59002965 7.03793195 -11.39336407 5.09774206 -11 2 C-7.94260267 -2.03576448 -4.55750868 -1.16009312 0 0 Z " fill="#0808CD" transform="translate(321,261)"/>
<path d="M0 0 C3.4375 0.9375 3.4375 0.9375 5.375 2.0625 C7.13047303 5.16039358 6.92473574 7.46594534 6.4375 10.9375 C4.375 13.4375 4.375 13.4375 1.4375 14.9375 C-2.25 14.875 -2.25 14.875 -5.5625 13.9375 C-8.04288907 10.2169164 -8.02587203 8.33953429 -7.5625 3.9375 C-5.29401339 0.30792142 -4.30870043 -0.07559124 0 0 Z " fill="#0707CD" transform="translate(317.5625,235.0625)"/>
<path d="M0 0 C1.32 0.99 2.64 1.98 4 3 C3.67 4.32 3.34 5.64 3 7 C1.125 7.625 1.125 7.625 -1 8 C-1.66 7.34 -2.32 6.68 -3 6 C-2.63318342 3.06546739 -2.13562754 2.13562754 0 0 Z " fill="#B2C1FF" transform="translate(405,413)"/>
<path d="M0 0 C1.65 0.33 3.3 0.66 5 1 C4.67 2.65 4.34 4.3 4 6 C2.35 5.67 0.7 5.34 -1 5 C-0.67 3.35 -0.34 1.7 0 0 Z " fill="#B7C6FF" transform="translate(347,387)"/>
<path d="M0 0 C1.65 0 3.3 0 5 0 C5.625 1.875 5.625 1.875 6 4 C5.34 4.66 4.68 5.32 4 6 C1.875 5.625 1.875 5.625 0 5 C0 3.35 0 1.7 0 0 Z " fill="#B4C3FF" transform="translate(71,445)"/>
<path d="M0 0 C1.32 0.99 2.64 1.98 4 3 C3.34 4.32 2.68 5.64 2 7 C0.68 6.67 -0.64 6.34 -2 6 C-2 2 -2 2 0 0 Z " fill="#C3D0FF" transform="translate(331,89)"/>
<path d="M0 0 C1.32 1.32 2.64 2.64 4 4 C2.68 4.99 1.36 5.98 0 7 C-0.99 5.68 -1.98 4.36 -3 3 C-2.01 2.01 -1.02 1.02 0 0 Z " fill="#CAD6FF" transform="translate(291,64)"/>
</svg>
